<?xml version="1.0" encoding="UTF-8" standalone="no"?>
<svg
   width="400"
   height="400"
   version="1.1"
   id="svg648"
   sodipodi:docname="defaultHeadshot.svg"
   inkscape:version="1.2.2 (b0a84865, 2022-12-01)"
   xmlns:inkscape="http://www.inkscape.org/namespaces/inkscape"
   xmlns:sodipodi="http://sodipodi.sourceforge.net/DTD/sodipodi-0.dtd"
   xmlns:xlink="http://www.w3.org/1999/xlink"
   xmlns="http://www.w3.org/2000/svg"
   xmlns:svg="http://www.w3.org/2000/svg">
  <defs
     id="defs652">
    <linearGradient
       inkscape:collect="always"
       id="linearGradient1460">
      <stop
         style="stop-color:#c8460c;stop-opacity:1;"
         offset="0.49517682"
         id="stop1456" />
      <stop
         style="stop-color:#bfbfbf;stop-opacity:0;"
         offset="1"
         id="stop1458" />
    </linearGradient>
    <radialGradient
       inkscape:collect="always"
       xlink:href="#linearGradient1460"
       id="radialGradient1462"
       cx="156.26907"
       cy="185.12712"
       fx="156.26907"
       fy="185.12712"
       r="207.45128"
       gradientTransform="matrix(1,0,0,0.92913382,51.182209,20.742134)"
       gradientUnits="userSpaceOnUse" />
  </defs>
  <sodipodi:namedview
     id="namedview650"
     pagecolor="#ffffff"
     bordercolor="#000000"
     borderopacity="0.25"
     inkscape:showpageshadow="2"
     inkscape:pageopacity="0.0"
     inkscape:pagecheckerboard="0"
     inkscape:deskcolor="#d1d1d1"
     showgrid="false"
     inkscape:zoom="0.64932763"
     inkscape:cx="179.41636"
     inkscape:cy="162.47576"
     inkscape:window-width="1212"
     inkscape:window-height="787"
     inkscape:window-x="349"
     inkscape:window-y="65"
     inkscape:window-maximized="0"
     inkscape:current-layer="svg648" />
  <rect
     style="fill:#e0d7b4;fill-opacity:1;stroke-width:0"
     id="rect3654"
     x="0"
     y="0"
     height="400"
     width="400"
     inkscape:label="Beige" />
  <rect
     style="fill:url(#radialGradient1462);fill-opacity:1;stroke-width:0"
     id="rect877"
     width="400"
     height="400"
     x="0"
     y="0"
     inkscape:label="Orange" />
  <path
     id="path644"
     style="fill:#000000;stroke:none;stroke-width:0.784818"
     inkscape:label="Killer"
     d="M 169.1582 36.613281 C 165.82017 36.564633 162.29641 37.798229 159.10156 39.171875 C 148.24518 43.839967 133.83177 61.220008 133.20312 73.335938 L 128.49414 76.476562 L 130.3125 90.601562 L 128.63867 105.51367 L 136.3418 121.21094 L 141.83594 121.21094 L 147.33008 148.67969 L 141.05078 151.81836 C 141.00448 157.36858 140.63149 166.00193 137.40039 170.65039 C 132.52354 177.66744 123.09896 180.26985 115.9375 184.24023 C 109.36938 187.88179 102.60192 194.63552 98.998047 201.26172 C 92.538998 213.13836 97.773048 223.91638 103.1875 235.00977 C 110.17629 249.32718 117.0157 262.86058 124.99023 276.60352 C 129.076 283.64333 132.28217 292.4927 138.69727 297.79492 L 138.69727 301.71875 L 148.73047 319.76953 L 155.86133 330.75586 L 154.39258 343.31445 L 144.97656 359.00977 L 144.19141 369.21289 C 137.35721 376.03295 135.16315 389.7908 133.98828 399.03516 L 281.5332 399.03516 L 276.44727 385.69336 L 268.20312 351.94727 L 266.47852 322.9082 L 262.14062 304.85742 L 261.91406 279.74414 C 272.94388 285.51332 282.87888 299.92381 291.73633 308.78125 C 303.6169 308.78125 310.19806 308.97674 319.99023 301.71875 L 319.85352 242.07227 L 312.40039 210.67969 L 312.92578 193.41406 L 309.00195 188.70508 L 313.68164 163.58984 L 313.71094 140.30273 L 313.71094 139.51758 L 312.14258 135.59375 C 309.0292 133.8852 307.82758 132.05548 307.43359 128.5293 L 299.58398 123.82031 L 298.80078 119.89648 L 292.52148 115.97266 L 295.66016 104.98438 L 286.24219 98.707031 C 287.09959 93.896716 293.86884 83.466742 296.48438 77.648438 C 297.10778 76.261658 293.30664 74.376953 293.30664 74.376953 C 295.81488 69.454345 298.76121 64.922889 300.23438 62.064453 C 301.70757 59.206007 287.00467 51.790321 285.91211 53.820312 L 261.33203 99.492188 L 244.64844 132.45312 L 244.64844 137.16211 L 246.2168 137.94727 L 243.86328 145.53906 L 250.92578 143.9707 L 250.92578 154.17188 L 255.63477 156.52734 L 253.28125 168.29883 C 260.87985 177.87988 260.34716 186.39343 250.14062 194.19922 C 243.8817 180.81495 225.07722 180.07227 212.4707 180.07227 L 206.97656 175.36328 L 203.83789 170.6543 C 203.21318 164.42206 200.91033 155.11695 195.20312 151.81836 L 210.11523 126.70508 L 211.68555 129.05859 L 211.68555 129.84375 L 207.76172 140.04688 C 214.22705 134.97225 216.35581 124.93514 218.25586 117.28711 C 222.86901 98.721471 221.00845 71.210114 209.95508 55.285156 C 202.05198 43.8995 190.50605 35.932282 176.36914 39.589844 C 174.23998 37.465113 171.75445 36.651119 169.1582 36.613281 z M 280.21484 197.15039 L 282.59375 197.15039 C 290.54833 205.1779 287.34961 214.91651 287.34961 225.6875 L 290.51953 227.27344 L 290.51953 233.61523 C 286.48715 239.72445 288.93359 248.71999 288.93359 255.81055 L 288.14258 255.81055 C 283.99446 244.8184 277.84493 233.73455 269.91016 224.89453 C 270.21455 219.0263 274.26467 206.5028 279.42188 203.49219 L 280.21484 197.15039 z " />
</svg>
