<?xml version="1.0" encoding="UTF-8" standalone="no"?>
<!-- Created with Inkscape (http://www.inkscape.org/) -->

<svg
   version="1.1"
   id="svg1095"
   width="500"
   height="500"
   viewBox="0 0 500 500"
   sodipodi:docname="crown.svg"
   inkscape:version="1.2.2 (b0a84865, 2022-12-01)"
   xmlns:inkscape="http://www.inkscape.org/namespaces/inkscape"
   xmlns:sodipodi="http://sodipodi.sourceforge.net/DTD/sodipodi-0.dtd"
   xmlns="http://www.w3.org/2000/svg"
   xmlns:svg="http://www.w3.org/2000/svg">
  <defs
     id="defs1099">
    <clipPath
       clipPathUnits="userSpaceOnUse"
       id="clipPath1930">
      <g
         id="g1936">
        <g
           id="g1934">
          <path
             d="M 0,500 H 500 V 0 H 0 Z"
             id="path1932" />
        </g>
      </g>
    </clipPath>
  </defs>
  <sodipodi:namedview
     id="namedview1097"
     pagecolor="#ffffff"
     bordercolor="#000000"
     borderopacity="0.25"
     inkscape:showpageshadow="2"
     inkscape:pageopacity="0.0"
     inkscape:pagecheckerboard="0"
     inkscape:deskcolor="#d1d1d1"
     showgrid="false"
     inkscape:zoom="4.0050527"
     inkscape:cx="234.82837"
     inkscape:cy="69.037793"
     inkscape:window-width="1628"
     inkscape:window-height="671"
     inkscape:window-x="0"
     inkscape:window-y="25"
     inkscape:window-maximized="0"
     inkscape:current-layer="g1103">
    <inkscape:page
       x="0"
       y="0"
       id="page1101"
       width="500"
       height="500" />
  </sodipodi:namedview>
  <g
     id="g1103"
     inkscape:groupmode="layer"
     inkscape:label="Page 1"
     transform="matrix(1.3333333,0,0,-1.3333333,0,666.66667)">
    <path
       id="path1125"
       clip-path="url(#clipPath1930)"
       style="fill:#f1e179;fill-opacity:1;fill-rule:nonzero;stroke:none"
       d="m 250.00891,447.50283 c -0.246,-0.017 -0.55669,-0.37093 -0.67969,-0.64893 -0.22,-0.49698 -0.32521,-1.0457 -0.47021,-1.5747 -0.991,-3.608 -1.90021,-7.24089 -2.99121,-10.81787 -1.49,-4.883 -3.30776,-9.65278 -6.30176,-13.84278 -1.032,-1.445 -2.27525,-2.80992 -3.65625,-3.91992 -2.738,-2.203 -5.72358,-2.0235 -8.22656,0.4585 -1.19,1.18 -2.21843,2.57806 -3.08643,4.01806 -2.279,3.779 -3.75784,7.9366 -5.38184,12.01758 -1.2,3.014 -2.33079,6.05543 -3.48779,9.08643 -0.165,0.433 -0.34488,0.95777 -0.90088,0.71777 -0.228,-0.099 -0.38081,-0.6547 -0.36181,-0.9917 0.059,-1.042 0.19737,-2.08119 0.33837,-3.11719 0.845,-6.20098 1.18009,-12.42046 0.41309,-18.64746 -0.237,-1.917 -0.64609,-3.84734 -1.26709,-5.67334 -1.17,-3.44198 -4.06202,-4.89533 -7.604,-4.06933 -2.147,0.5 -3.96919,1.61514 -5.63819,2.99414 -2.98398,2.466 -5.42901,5.4404 -7.81201,8.4624 -2.442,3.098 -4.83709,6.23138 -7.26709,9.33838 -0.343,0.438 -0.56973,1.11813 -1.40771,0.91113 -0.46,-0.85 0.14734,-1.5271 0.42334,-2.2251 2.85198,-7.20998 5.23699,-14.57672 6.64599,-22.1997 1.113,-6.023 1.94192,-12.10504 2.69092,-18.18604 -0.68188,-5.62772 10.4795,-5.16819 9.06592,-2.7583 -0.111,0.805 0.88741,1.13428 1.54541,1.38428 2.652,1.008 5.29802,2.06898 8.02002,2.85498 7.62898,2.203 15.36571,3.95384 23.28369,4.73584 3.1635,0.312 6.33573,0.54274 9.51709,0.52441 1.06045,-0.006 2.12182,-0.0392 3.18457,-0.10693 1.538,-0.098 3.09023,0.0742 4.63623,0.0952 4.397,0.058 8.7842,-0.17739 13.13818,-0.75439 8.823,-1.17 17.46218,-3.18768 25.91016,-5.99268 1.178,-0.392 2.31513,-0.92711 3.43213,-1.47509 0.554,-0.271 1.02151,-0.72116 1.62451,-1.16016 -3.17333,-1.95825 7.8845,-3.3982 8.56348,1.59814 0.552,4.247 1.1677,8.48743 1.7417,12.73243 1.352,9.99598 4.19413,19.58493 7.89111,28.94091 0.147,0.371 0.36069,0.73561 0.40869,1.12061 0.035,0.284 -0.14837,0.59502 -0.23437,0.89502 -0.26,-0.099 -0.55704,-0.14855 -0.76904,-0.31055 -0.23,-0.177 -0.38143,-0.45687 -0.56543,-0.69287 -1.593,-2.051 -3.18234,-4.10581 -4.77832,-6.15381 -2.856,-3.66298 -5.64232,-7.38813 -9.07032,-10.55713 -2.077,-1.92098 -4.33338,-3.54725 -7.19238,-4.09423 -3.149,-0.603 -5.72612,0.69578 -6.97412,3.55078 -0.357,0.818 -0.65694,1.67784 -0.85694,2.54882 -1.19098,5.199 -1.24348,10.47826 -0.89648,15.76026 0.208,3.178 0.62854,6.34123 0.95654,9.51123 0.025,0.245 0.14736,0.50756 0.0894,0.72656 -0.053,0.202 -0.26371,0.45744 -0.44971,0.50244 -0.181,0.044 -0.49777,-0.0934 -0.61377,-0.25341 -0.199,-0.275 -0.29834,-0.62569 -0.42334,-0.95069 -0.749,-1.958 -1.44353,-3.93756 -2.24853,-5.87256 -1.879,-4.51598 -3.75873,-9.03193 -5.74073,-13.50293 -0.91398,-2.06198 -2.21245,-3.91696 -3.91845,-5.43896 -1.713,-1.527 -3.69276,-2.30603 -5.92676,-1.47803 -1.136,0.421 -2.26151,1.12608 -3.12451,1.97608 -1.27,1.24998 -2.41116,2.67036 -3.41016,4.15136 -1.851,2.745 -3.11341,5.79962 -4.27441,8.8916 -1.774,4.727 -2.99305,9.6171 -4.24805,14.4961 -0.162,0.627 -0.32415,1.26396 -0.57715,1.85596 -0.115,0.269 -0.46501,0.62437 -0.68701,0.60937 z m 0.006,-23.74072 c 1.353,-1.499 2.08934,-3.24624 2.40234,-5.11524 0.692,-4.12998 0.41983,-8.24856 -0.55517,-12.31054 -0.253,-1.055 -0.60896,-2.13147 -1.85596,-2.62647 -1.037,0.501 -1.51075,1.3413 -1.69775,2.2793 -0.368,1.852 -0.75677,3.71724 -0.88477,5.59424 -0.166,2.43198 -0.27861,4.88671 0.27539,7.30371 0.404,1.764 1.07392,3.403 2.31592,4.875 z m 28.97021,-7.16162 c 1.117,-1.71 1.21665,-3.46175 1.03565,-5.19873 -0.254,-2.434 -0.79729,-4.82368 -1.80029,-7.07666 -0.262,-0.588 -0.59131,-1.16446 -0.98731,-1.66846 -0.383,-0.488 -0.7719,-1.21624 -1.5249,-0.99024 -0.743,0.223 -0.72114,1.01435 -0.74414,1.65235 -0.029,0.847 -0.0446,1.70343 0.0454,2.54443 0.35,3.264 1.35655,6.32963 2.93555,9.20361 0.279,0.508 0.65105,0.9667 1.04003,1.5337 z m -57.87451,-0.11133 c 0.275,-0.357 0.55168,-0.64112 0.74268,-0.97412 2.065,-3.61 3.2825,-7.4643 3.2915,-11.6543 0.002,-0.836 0.10863,-1.91836 -0.83935,-2.17236 -0.846,-0.228 -1.37689,0.69595 -1.75489,1.37695 -1.908,3.443 -2.75845,7.14177 -2.41845,11.07275 0.071,0.812 0.26951,1.66208 0.97851,2.35108 z m -22.74756,-7.7417 c 2.396,-4.023 4.14523,-7.97426 4.63623,-12.48926 -2.97898,1.162 -5.87623,8.82626 -4.63623,12.48926 z m 103.44727,-0.25635 c 0.639,-1.887 0.47822,-3.6275 -0.17578,-5.3335 -0.979,-2.55398 -2.12128,-5.0161 -4.38428,-7.2041 0,0.817 -0.0828,1.33727 0.0132,1.82227 0.74098,3.74998 2.15027,7.24142 4.17627,10.48242 0.045,0.073 0.1586,0.10191 0.3706,0.23291 z"
       transform="translate(-62.500116,50.935661)"
       sodipodi:nodetypes="ccccccsccccccccccccccccccccscccccccccccccccccccccccccccsccccscccccccccccccscccccccccccccccccccc" />
  </g>
</svg>
